<svg width="40" height="11" viewBox="0 0 40 11" fill="none" xmlns="http://www.w3.org/2000/svg">
<path d="M7.1265 7.29399C7.0565 6.39799 6.6225 5.66999 5.9505 5.24999C6.7625 4.82999 7.2665 4.14399 7.2665 3.13599C7.2665 1.35799 6.0625 0.111987 4.0185 0.111987H0.000500023V9.91199H1.8625V6.22999H3.9765C4.7045 6.22999 5.2225 6.76199 5.2925 7.50399L5.5305 9.91199H7.3645L7.1265 7.29399ZM3.9345 1.66599C5.0265 1.66599 5.4745 2.35199 5.4745 3.13599C5.4745 3.91999 5.0265 4.63399 3.9345 4.63399H1.8625V1.66599H3.9345ZM15.668 9.91199V8.30199H10.838V5.68399H14.59V4.08799H10.838V1.70799H15.514V0.111987H8.99003V9.91199H15.668ZM20.0511 10.024C22.2071 10.024 23.7051 8.91799 23.7051 7.09799C23.7051 3.27599 18.3711 4.89999 18.3711 2.72999C18.3711 2.04399 18.9731 1.59599 19.9391 1.59599C20.9751 1.59599 21.6471 2.16999 21.7311 3.02399H23.4951C23.4111 1.18999 22.0111 -1.27554e-05 19.9391 -1.27554e-05C17.9511 -1.27554e-05 16.5651 1.11999 16.5651 2.72999C16.5651 6.48199 21.8291 5.02599 21.8291 7.12599C21.8291 7.99399 21.1011 8.41399 20.0511 8.41399C18.8751 8.41399 18.1471 7.71399 18.0491 6.62199H16.2711C16.3691 8.67999 17.8251 10.024 20.0511 10.024ZM31.4323 9.91199V8.30199H26.6023V5.68399H30.3542V4.08799H26.6023V1.70799H31.2783V0.111987H24.7542V9.91199H31.4323ZM36.5993 9.91199V1.70799H39.5533V0.111987H31.7833V1.70799H34.7513V9.91199H36.5993Z" fill="#1A1B1C"/>
</svg>
